<?xml version="1.0" encoding="utf-8"?>
<!-- Generator: Adobe Illustrator 24.0.1, SVG Export Plug-In . SVG Version: 6.00 Build 0)  -->
<svg version="1.1" id="Layer_1" xmlns="http://www.w3.org/2000/svg" xmlns:xlink="http://www.w3.org/1999/xlink" x="0px" y="0px"
	 viewBox="0 0 30 30" style="enable-background:new 0 0 30 30;" xml:space="preserve">
<style type="text/css">
	.st0{fill:#584ED2;}
</style>
<g>
	<path class="st0" d="M6.2,16.8c-0.1-2.2,1.9-4.1,4.1-4.1c2.1,0,4.1,1.8,4.1,4.1c0,2.1-1.8,4.1-4.1,4.1C7.8,20.9,6.1,18.8,6.2,16.8z
		 M10.2,19.4c1.5,0,2.7-1.2,2.7-2.6c0-1.4-1.2-2.7-2.6-2.7c-1.4,0-2.7,1.2-2.7,2.6C7.6,18.2,8.8,19.4,10.2,19.4z"/>
	<path class="st0" d="M15.6,16.7c-0.1-2.2,1.9-4.1,4.1-4.1c2.1,0,4.1,1.8,4.1,4.1c0,2.1-1.7,4.1-4.1,4.1
		C17.4,20.9,15.6,18.9,15.6,16.7z M19.7,19.4c1.5,0,2.7-1.2,2.7-2.6c0-1.4-1.2-2.7-2.6-2.7c-1.4,0-2.7,1.2-2.7,2.6
		C17.1,18.2,18.3,19.4,19.7,19.4z"/>
	<path d="M1.8,20.4c0-0.6,0-1.2,0-1.8c0-0.8-0.2-1-0.9-1.1c-0.5-0.1-0.7-0.3-0.7-0.8c0-0.4,0.3-0.7,0.7-0.8c0.7-0.1,0.9-0.3,0.9-1.1
		c0-1.1,0-2.3,0-3.4c0-0.2,0-0.5,0.1-0.7c0.2-1,0.8-1.5,1.8-1.7c0.2,0,0.4,0,0.6,0C4.6,9.1,5,9.4,5,9.8c0,0.5-0.2,0.8-0.7,0.8
		c-0.1,0-0.1,0-0.2,0c-0.6,0.1-0.8,0.3-0.8,0.9c0,1.1,0,2.3,0,3.4c0,0.6-0.1,1.2-0.4,1.8c0,0.1,0,0.2,0,0.2c0.3,0.5,0.4,1.1,0.4,1.7
		c0,1.1,0,2.2,0,3.4c0,0.7,0.2,0.9,0.9,1C4.7,23,5,23.3,5,23.7c0,0.4-0.3,0.7-0.8,0.7c-0.4,0-0.7,0-1.1-0.2
		c-0.8-0.2-1.3-0.9-1.3-1.9c0-0.1,0-0.2,0-0.3C1.8,21.6,1.8,21,1.8,20.4C1.8,20.4,1.8,20.4,1.8,20.4z"/>
	<path d="M28.2,13.1c0,0.6,0,1.2,0,1.9c0,0.7,0.2,0.9,0.9,1c0.5,0.1,0.8,0.3,0.8,0.8c0,0.4-0.3,0.7-0.8,0.7c-0.6,0.1-0.9,0.3-0.9,1
		c0,1.1,0,2.2,0,3.4c0,0.4,0,0.8-0.1,1.2c-0.2,0.9-1,1.4-1.9,1.4c-0.1,0-0.2,0-0.4,0c-0.5,0-0.8-0.3-0.8-0.7c0-0.5,0.2-0.8,0.7-0.8
		c0.7-0.1,0.9-0.3,0.9-1c0-1.1,0-2.3,0-3.4c0-0.6,0.1-1.1,0.4-1.6c0-0.1,0-0.2,0-0.2c-0.3-0.5-0.4-1.1-0.4-1.6c0-1.1,0-2.3,0-3.4
		c0-0.2-0.1-0.5-0.2-0.7c-0.1-0.1-0.3-0.2-0.5-0.3c-0.1,0-0.2,0-0.3,0c-0.4-0.1-0.7-0.3-0.7-0.8c0-0.4,0.2-0.7,0.7-0.8
		c1.3,0,2.4,0.4,2.5,2.1C28.2,11.8,28.2,12.5,28.2,13.1C28.2,13.1,28.2,13.1,28.2,13.1z"/>
	<path d="M12.7,8.3c0-1,0.5-1.8,1.1-2.6c0.2-0.2,0.5-0.2,0.8-0.1c0.2,0.1,0.4,0.4,0.3,0.7c-0.1,0.3-0.2,0.6-0.3,0.8
		c-0.2,0.7-0.1,1.5,0.2,2.2c0.3,0.7-0.2,1.3-0.9,1.3c-0.3,0-0.5-0.2-0.7-0.4C12.8,9.6,12.7,9,12.7,8.3z"/>
	<path d="M15.1,8.4c0-1.1,0.5-1.9,1.1-2.7c0.2-0.2,0.5-0.2,0.8-0.1c0.2,0.2,0.3,0.4,0.3,0.7C17.2,6.8,17,7.3,17,7.7
		c-0.1,0.6,0.1,1.1,0.3,1.7c0.2,0.6-0.3,1.3-0.9,1.2c-0.2,0-0.5-0.2-0.6-0.4C15.3,9.7,15.2,9,15.1,8.4z"/>
</g>
</svg>
