<?xml version="1.0" encoding="utf-8"?>
<!-- Generator: Adobe Illustrator 24.0.1, SVG Export Plug-In . SVG Version: 6.00 Build 0)  -->
<svg version="1.1" id="Layer_1" xmlns="http://www.w3.org/2000/svg" xmlns:xlink="http://www.w3.org/1999/xlink" x="0px" y="0px"
	 viewBox="0 0 137 24" style="enable-background:new 0 0 137 24;" xml:space="preserve">
<style type="text/css">
	.st0{fill:#584ED2;}
	.st1{fill:#FFFFFF;}
</style>
<g>
	<path class="st0" d="M20.3,14.1c-0.1-2.5,2.2-4.8,4.8-4.8c2.5,0,4.8,2.1,4.8,4.8c0,2.5-2.1,4.8-4.8,4.8
		C22.3,18.9,20.2,16.5,20.3,14.1z M25.1,17.1c1.7,0,3.1-1.4,3.1-3.1c0-1.7-1.4-3.1-3.1-3.1C23.5,11,22,12.4,22,14
		C22,15.7,23.4,17.1,25.1,17.1z"/>
	<path class="st0" d="M31.4,14c-0.1-2.5,2.2-4.8,4.8-4.8c2.5,0,4.8,2.2,4.8,4.8c0,2.4-2,4.8-4.8,4.8C33.4,18.9,31.3,16.6,31.4,14z
		 M36.2,17.1c1.7,0,3.1-1.4,3.1-3.1c0-1.7-1.4-3.1-3.1-3.1c-1.7,0-3.1,1.4-3.1,3.1C33.1,15.7,34.5,17.1,36.2,17.1z"/>
	<path class="st1" d="M15.2,18.3c0-0.7,0-1.4,0-2.1c0-0.9-0.2-1.1-1.1-1.2c-0.5-0.1-0.9-0.4-0.9-0.9c0-0.5,0.3-0.8,0.9-0.9
		c0.9-0.1,1.1-0.4,1.1-1.3c0-1.3,0-2.7,0-4c0-0.3,0-0.6,0.1-0.9c0.2-1.1,0.9-1.8,2.1-1.9c0.2,0,0.4-0.1,0.7-0.1c0.5,0,0.9,0.3,1,0.8
		c0,0.5-0.3,0.9-0.8,1c-0.1,0-0.1,0-0.2,0C17.3,7,17,7.3,17,7.9c0,1.3,0,2.6,0,4c0,0.7-0.1,1.4-0.5,2c0,0.1,0,0.2,0,0.3
		c0.4,0.6,0.5,1.3,0.5,1.9c0,1.3,0,2.6,0,3.9c0,0.8,0.2,1.1,1.1,1.2c0.6,0,0.9,0.4,0.9,0.9c0,0.5-0.4,0.9-0.9,0.8
		c-0.4,0-0.9-0.1-1.2-0.2c-0.9-0.3-1.5-1.1-1.6-2.2c0-0.1,0-0.2,0-0.3C15.2,19.7,15.2,19,15.2,18.3C15.2,18.3,15.2,18.3,15.2,18.3z"
		/>
	<path class="st1" d="M46.1,9.8c0,0.7,0,1.4,0,2.2c0,0.8,0.2,1.1,1.1,1.2c0.6,0.1,0.9,0.4,0.9,0.9c0,0.5-0.4,0.8-0.9,0.9
		c-0.8,0.1-1,0.4-1,1.1c0,1.3,0,2.6,0,3.9c0,0.5,0,0.9-0.2,1.4c-0.3,1-1.2,1.6-2.2,1.7c-0.1,0-0.3,0-0.4,0c-0.6,0-0.9-0.3-0.9-0.8
		c0-0.6,0.3-0.9,0.9-1c0.8-0.1,1.1-0.3,1.1-1.2c0-1.3,0-2.7,0-4c0-0.7,0.1-1.3,0.5-1.9c0-0.1,0-0.2,0-0.3c-0.4-0.6-0.5-1.2-0.5-1.9
		c0-1.3,0-2.6,0-4c0-0.3-0.1-0.6-0.2-0.8C44,7.1,43.7,7,43.5,6.9c-0.1-0.1-0.3,0-0.4-0.1c-0.5-0.1-0.8-0.4-0.8-0.9
		c0-0.5,0.3-0.9,0.8-0.9c1.5,0,2.8,0.5,2.9,2.4C46.1,8.3,46.1,9,46.1,9.8C46.1,9.8,46.1,9.8,46.1,9.8z"/>
	<path class="st1" d="M28,4.2c0-1.1,0.6-2.1,1.3-3c0.2-0.2,0.6-0.3,0.9-0.1c0.3,0.2,0.4,0.5,0.3,0.8c-0.1,0.3-0.2,0.7-0.3,1
		c-0.2,0.9-0.1,1.7,0.2,2.5c0.3,0.8-0.3,1.6-1.1,1.5c-0.3,0-0.6-0.2-0.8-0.5C28.1,5.7,28,5,28,4.2z"/>
	<path class="st1" d="M30.8,4.3c0-1.3,0.6-2.3,1.3-3.1c0.2-0.2,0.6-0.3,0.9-0.1c0.3,0.2,0.4,0.5,0.3,0.9c-0.1,0.5-0.3,1-0.4,1.5
		c-0.1,0.7,0.1,1.3,0.3,2c0.3,0.7-0.3,1.5-1.1,1.4c-0.3,0-0.5-0.2-0.7-0.4C30.9,5.8,30.8,5,30.8,4.3z"/>
	<g>
		<path class="st1" d="M109.3,17.8c-0.2,0.7-0.4,1.3-0.6,2c0,0.1-0.1,0.3-0.1,0.4c-0.1,0.3-0.5,0.3-0.6,0c0-0.1-0.1-0.1-0.1-0.2
			c-0.3-0.9-0.6-1.9-0.9-2.8c0-0.1-0.1-0.2-0.1-0.3c0-0.1,0-0.3,0.2-0.3c0.1,0,0.3,0,0.4,0.1c0.1,0.1,0.1,0.2,0.1,0.3
			c0.2,0.6,0.4,1.2,0.6,1.8c0,0.1,0.1,0.2,0.1,0.3c0.2-0.6,0.3-1.1,0.5-1.7c0.1-0.2,0.1-0.4,0.2-0.6c0.1-0.2,0.2-0.3,0.4-0.3
			c0.2,0,0.3,0.1,0.4,0.3c0.2,0.7,0.4,1.4,0.5,2.1c0,0,0,0.1,0,0.1c0.1-0.2,0.1-0.3,0.2-0.4c0.2-0.6,0.4-1.2,0.6-1.7
			c0-0.1,0.1-0.2,0.1-0.3c0.1-0.1,0.3-0.2,0.4-0.1c0.1,0.1,0.2,0.2,0.1,0.3c0,0.1,0,0.2-0.1,0.3c-0.3,0.9-0.6,1.8-0.9,2.7
			c0,0.1,0,0.1-0.1,0.2c-0.1,0.1-0.2,0.2-0.3,0.2c-0.2,0-0.3-0.1-0.3-0.2c0-0.1,0-0.1-0.1-0.2c-0.2-0.6-0.3-1.3-0.5-1.9
			C109.4,17.9,109.4,17.8,109.3,17.8C109.3,17.8,109.3,17.8,109.3,17.8z"/>
		<path class="st1" d="M115.3,19.8c-0.1,0.1-0.1,0.1-0.2,0.1c-0.8,0.7-2.3,0.6-2.8-0.8c-0.3-0.8,0-1.8,0.6-2.2
			c0.6-0.4,1.3-0.5,1.9-0.2c0.7,0.3,1,0.9,1.1,1.6c0,0.5,0,1.1,0,1.6c0,0.1,0,0.2-0.1,0.2c-0.1,0.1-0.2,0.2-0.3,0.2
			c-0.1,0-0.2-0.1-0.3-0.2C115.3,20,115.3,19.9,115.3,19.8z M114.1,19.7c0.6,0,1.2-0.5,1.2-1.3c0-0.7-0.5-1.3-1.2-1.3
			c-0.7,0-1.2,0.5-1.2,1.3C112.9,19.2,113.4,19.7,114.1,19.7z"/>
		<path class="st1" d="M120.9,18.7c0.1,0.8,1,1.3,1.9,0.9c0.1,0,0.2-0.1,0.3-0.2c0.2-0.1,0.3,0,0.4,0.1c0.1,0.1,0.1,0.3-0.1,0.4
			c-0.2,0.1-0.5,0.3-0.7,0.3c-1.1,0.3-2.2-0.3-2.4-1.4c-0.2-1,0.3-1.8,1.1-2.2c0.4-0.2,0.9-0.2,1.4,0c0.4,0.1,0.7,0.4,0.9,0.8
			c0.1,0.3,0.2,0.6,0.2,0.9c0,0.3-0.1,0.4-0.3,0.4c-0.1,0-0.2,0-0.3,0c-0.6,0-1.2,0-1.9,0C121.1,18.7,121,18.7,120.9,18.7z
			 M123.1,18.1c0-0.6-0.6-1-1.1-1c-0.6,0-1,0.4-1,1c0.1,0,0.1,0,0.2,0C121.8,18.1,122.4,18.1,123.1,18.1z"/>
		<path class="st1" d="M99.2,20.4c-0.9,0-1.9-0.6-1.9-1.9c0-1.2,0.8-1.9,1.9-1.9c1.3,0,1.9,1,1.9,1.9
			C101.1,19.6,100.3,20.4,99.2,20.4z M100.4,18.5c0-0.1,0-0.2,0-0.2c-0.1-0.5-0.3-0.8-0.7-1c-0.5-0.2-0.9-0.1-1.3,0.2
			c-0.6,0.5-0.6,1.6,0.1,2.1c0.4,0.3,0.8,0.3,1.3,0.1C100.3,19.4,100.4,19,100.4,18.5z"/>
		<path class="st1" d="M95.1,20.4c-0.4,0-0.8-0.1-1.1-0.3c-0.1-0.1-0.2-0.1-0.3-0.2c-0.1-0.1-0.1-0.3,0-0.4c0.1-0.2,0.3-0.2,0.5-0.1
			c0.1,0,0.1,0.1,0.1,0.1c0.4,0.3,0.8,0.3,1.3,0.3c0.1,0,0.2-0.1,0.2-0.1c0.3-0.2,0.3-0.5,0-0.7c-0.1-0.1-0.3-0.1-0.4-0.2
			c-0.2-0.1-0.4-0.1-0.7-0.2c-0.2-0.1-0.5-0.2-0.6-0.3c-0.5-0.4-0.4-1.1,0.1-1.4c0.6-0.4,1.6-0.4,2.1,0.1c0.1,0.1,0.1,0.1,0.2,0.2
			c0.1,0.1,0.1,0.2,0,0.3c-0.1,0.1-0.2,0.2-0.3,0.1c-0.1,0-0.2-0.1-0.3-0.2c-0.4-0.3-0.7-0.3-1.2-0.2c-0.2,0-0.3,0.1-0.3,0.3
			c0,0.2,0.1,0.3,0.3,0.4c0.2,0.1,0.4,0.1,0.7,0.2c0.3,0.1,0.5,0.1,0.8,0.3c0.8,0.4,0.6,1.4,0.1,1.7C95.9,20.3,95.5,20.4,95.1,20.4z
			"/>
		<path class="st1" d="M103,16.7c0.1,0,0.3,0,0.4,0c0.1,0,0.2,0,0.3,0c0.2,0,0.3,0.1,0.3,0.3c0,0.2-0.1,0.3-0.3,0.3
			c-0.2,0-0.4,0-0.7,0c0,0.1,0,0.2,0,0.3c0,0.7,0,1.4,0,2.1c0,0.1,0,0.2,0,0.3c0,0.2-0.2,0.3-0.4,0.3c-0.2,0-0.3-0.1-0.3-0.3
			c0-0.1,0-0.2,0-0.3c0-0.7,0-1.3,0-2c0-0.1,0-0.2,0-0.4c-0.1,0-0.2,0-0.3,0c-0.2,0-0.3-0.1-0.3-0.3c0-0.1,0.1-0.3,0.3-0.3
			c0.1,0,0.2,0,0.3,0c0-0.1,0-0.3,0-0.4c0.1-0.8,0.7-1.3,1.5-1.3c0.2,0,0.3,0.1,0.4,0.3c0,0.2-0.1,0.3-0.3,0.4c-0.1,0-0.2,0-0.3,0.1
			C103.1,15.8,102.9,16.1,103,16.7z"/>
		<path class="st1" d="M105.5,17.3c0,0.6,0,1.2,0,1.8c0,0.4,0.2,0.6,0.6,0.6c0.1,0,0.2,0,0.3,0.1c0.1,0.1,0.1,0.2,0.1,0.3
			c0,0.2-0.2,0.2-0.3,0.3c-0.4,0.1-0.9-0.2-1.2-0.6c-0.2-0.2-0.2-0.5-0.2-0.8c0-0.5,0-1.1,0-1.7c-0.1,0-0.3,0-0.4,0
			c-0.1,0-0.2-0.1-0.2-0.2c0-0.2,0-0.3,0.2-0.3c0.1,0,0.2,0,0.4-0.1c0-0.3,0-0.5,0-0.8c0-0.3,0.1-0.5,0.4-0.5c0.2,0,0.3,0.1,0.3,0.5
			c0,0.3,0,0.6,0,0.9c0.2,0,0.3,0,0.4,0c0.1,0,0.2,0,0.3,0c0.2,0,0.3,0.2,0.3,0.3c0,0.1-0.1,0.2-0.3,0.3
			C106,17.3,105.8,17.3,105.5,17.3z"/>
		<path class="st1" d="M117.8,17c0.4-0.3,0.8-0.5,1.2-0.4c0.2,0,0.3,0.1,0.5,0.1c0.1,0.1,0.2,0.2,0.1,0.3c0,0.1-0.2,0.2-0.3,0.2
			c-0.1,0-0.1,0-0.2,0c-0.3,0-0.5,0-0.7,0.1c-0.4,0.1-0.6,0.4-0.6,0.8c0,0.6,0,1.2,0,1.8c0,0.1,0,0.2,0,0.3c0,0.2-0.2,0.3-0.4,0.3
			c-0.2,0-0.3-0.1-0.3-0.3c0-0.1,0-0.2,0-0.2c0-0.9,0-1.8,0-2.7c0,0,0-0.1,0-0.1c0-0.3,0.1-0.3,0.2-0.4c0.2,0,0.3,0,0.4,0.3
			C117.8,16.9,117.8,16.9,117.8,17z"/>
	</g>
	<g>
		<path class="st0" d="M71.5,8.6c0,1.4,0,2.8,0,4.2c0,0.2,0,0.4-0.1,0.6c-0.1,0.5-0.4,0.7-0.8,0.8c-0.5,0.1-1,0.1-1.5,0
			c-0.3-0.1-0.5-0.2-0.7-0.4c-0.3-0.5-0.6-1.1-0.9-1.6c-0.8-1.5-1.7-2.9-2.5-4.4c-0.3-0.5-0.6-1-0.8-1.5c0-0.1-0.1-0.1-0.1-0.2
			c0,0-0.1,0-0.1,0c0,0.1,0,0.3,0,0.4c0,2.3,0,4.7,0,7c0,0.1,0,0.3,0,0.4c0,0.2-0.1,0.3-0.3,0.3c-0.4,0-0.7,0-1.1,0
			c-0.2,0-0.3-0.1-0.4-0.4c0-0.1,0-0.2,0-0.3c0-2.7,0-5.4,0-8.2c0-0.3,0-0.6,0.1-0.9C62.3,4,62.6,3.8,63,3.7c0.6-0.1,1.1,0,1.7,0
			c0.2,0,0.4,0.2,0.5,0.4c0.2,0.3,0.4,0.7,0.6,1c0.6,1,1.1,2,1.7,3c0.7,1.2,1.3,2.3,2,3.5c0,0,0.1,0.1,0.1,0.1c0,0,0.1,0,0.1,0
			c0,0,0.1-0.1,0.1-0.1c0-0.1,0-0.3,0-0.4c0-2.3,0-4.7,0-7c0-0.6,0-0.6,0.6-0.6c0.2,0,0.4,0,0.7,0c0.3,0,0.4,0.1,0.4,0.4
			c0,0.7,0,1.5,0,2.2C71.5,7.1,71.5,7.8,71.5,8.6C71.5,8.6,71.5,8.6,71.5,8.6z"/>
		<path class="st0" d="M106.6,3.6c0.8,0,1.5,0,2.3,0c0.4,0,0.8,0,1.3,0.1c0.6,0.1,1,0.4,1.3,0.9c0.2,0.3,0.3,0.7,0.4,1.1
			c0.2,0.9,0.1,1.9-0.2,2.8c-0.2,0.6-0.7,1-1.4,1.2c0,0,0,0,0,0c-0.3,0.1-0.3,0.1-0.2,0.4c0.1,0.2,0.3,0.5,0.4,0.7
			c0.5,0.9,1.1,1.8,1.6,2.7c0,0,0,0.1,0.1,0.1c0.2,0.3,0,0.6-0.4,0.6c-0.3,0-0.7,0-1,0c-0.3,0-0.4-0.1-0.5-0.3
			c-0.2-0.4-0.4-0.7-0.6-1.1c-0.5-0.9-1-1.8-1.6-2.7c-0.1-0.2-0.2-0.2-0.4-0.2c-0.7,0-1.4,0-2.1,0c-0.4,0-0.4,0-0.4,0.4
			c0,1,0,2,0,2.9c0,0.1,0,0.3,0,0.4c0,0.6-0.1,0.7-0.7,0.7c-0.2,0-0.5,0-0.7,0c-0.3,0-0.4-0.1-0.4-0.4c0-0.1,0-0.2,0-0.3
			c0-1.7,0-3.3,0-5c0-0.6,0-0.6,0.6-0.6c1.7,0,3.3,0,5,0c0.1,0,0.2,0,0.3,0c0.5,0,0.9-0.3,0.9-0.8c0-0.3,0-0.6,0-0.9
			c-0.1-0.5-0.3-0.7-0.8-0.7c-1.7,0-3.4,0-5,0c-0.1,0-0.3,0-0.4,0c-0.4,0-0.5-0.1-0.5-0.5c0-0.3,0-0.6,0-1c0-0.3,0.1-0.4,0.4-0.4
			c0.1,0,0.2,0,0.3,0C104.9,3.6,105.8,3.6,106.6,3.6z"/>
		<path class="st0" d="M118.4,3.6c0.8,0,1.5,0,2.3,0c0.4,0,0.8,0,1.2,0.1c0.7,0.1,1.1,0.4,1.4,1.1c0.2,0.4,0.3,0.9,0.3,1.3
			c0.1,0.7,0,1.4-0.2,2.1c-0.2,0.9-0.9,1.6-2,1.6c-1.4,0-2.8,0-4.2,0c-0.5,0-0.5,0-0.5,0.4c0,1.1,0,2.2,0,3.2c0,0.1,0,0.2,0,0.3
			c0,0.3-0.1,0.4-0.4,0.4c-0.4,0-0.7,0-1.1,0c-0.3,0-0.3-0.1-0.4-0.4c0-0.8,0-1.6,0-2.5c0-0.9,0-1.8,0-2.8c0-0.4,0.1-0.5,0.5-0.5
			c1.7,0,3.4,0,5.1,0c0.1,0,0.3,0,0.4,0c0.3,0,0.6-0.2,0.7-0.5c0.2-0.5,0.2-1,0-1.4c-0.1-0.4-0.3-0.5-0.8-0.5c-1.6,0-3.3,0-4.9,0
			c-0.2,0-0.4,0-0.7,0c-0.3,0-0.4-0.1-0.4-0.5c0-0.3,0-0.6,0-0.9c0-0.3,0.1-0.5,0.5-0.5C116.5,3.6,117.5,3.6,118.4,3.6z"/>
		<path class="st0" d="M96.8,8c1,0,2.1,0,3.1,0c0.5,0,0.5,0.1,0.5,0.5c0,0.3,0,0.5,0,0.8c0,0.4-0.1,0.5-0.5,0.5c-1.7,0-3.3,0-5,0
			c-0.8,0-0.7-0.1-0.7,0.7c0,0.2,0,0.5,0.1,0.7c0.1,0.4,0.3,0.6,0.7,0.7c0.2,0,0.5,0.1,0.7,0.1c1.4,0,2.7,0,4.1,0c0.1,0,0.2,0,0.3,0
			c0.2,0,0.2,0.1,0.3,0.2c0,0.5,0,1.1,0,1.6c0,0.2-0.1,0.3-0.3,0.3c-0.1,0-0.1,0-0.2,0c-1.6,0-3.2,0-4.7,0c-0.3,0-0.7,0-1-0.2
			c-0.9-0.3-1.4-1-1.6-1.9c-0.1-0.6-0.2-1.2-0.2-1.8c0-0.4,0-0.8,0-1.2c0-0.6,0.5-1.1,1.1-1.1C94.6,8,95.7,8,96.8,8
			C96.8,8,96.8,8,96.8,8z"/>
		<path class="st0" d="M78.6,8c1,0,2,0,3,0c0.1,0,0.2,0,0.3,0c0.2,0,0.3,0.1,0.3,0.3c0,0.4,0,0.8,0,1.2c0,0.2-0.1,0.3-0.3,0.3
			c-0.1,0-0.2,0-0.3,0c-1.6,0-3.2,0-4.8,0c-0.1,0-0.1,0-0.2,0c-0.4,0-0.4,0-0.4,0.4c0,1.2,0,2.3-0.1,3.5c0,0.4-0.1,0.5-0.5,0.5
			c-0.3,0-0.5,0-0.8,0c-0.4,0-0.5-0.1-0.5-0.5c0-0.8,0-1.6,0-2.4c0-0.7,0-1.5,0.1-2.2c0-0.6,0.4-1,1-1c0.2,0,0.5,0,0.7,0
			C77,8,77.8,8,78.6,8C78.6,8,78.6,8,78.6,8z"/>
		<path class="st0" d="M56.1,9.7c-0.8,0-1.7,0-2.5,0c-0.5,0-0.5,0-0.5,0.5c0,1.1,0,2.2,0,3.2c0,0.6-0.1,0.7-0.7,0.7
			c-0.2,0-0.5,0-0.7,0c-0.2,0-0.3-0.1-0.4-0.3c0-0.1,0-0.2,0-0.3c0-1.5,0-2.9,0-4.4c0-0.7,0.4-1.2,1.1-1.2c2.1,0,4.2,0,6.3,0
			c0.4,0,0.4,0.1,0.5,0.5c0,0.3,0,0.6,0,1c0,0.3-0.1,0.4-0.4,0.4c-0.6,0-1.2,0-1.8,0C56.7,9.7,56.4,9.7,56.1,9.7z"/>
		<path class="st0" d="M78.3,3.6c1.1,0,2.2,0,3.3,0c0.1,0,0.1,0,0.2,0c0.5,0,0.6,0.1,0.6,0.6c0,0.3,0,0.5,0,0.8
			c0,0.3-0.1,0.4-0.4,0.5c-0.1,0-0.2,0-0.3,0c-2.2,0-4.4,0-6.6,0c-0.7,0-0.7-0.1-0.7-0.7c0-0.2,0-0.4,0-0.6c0-0.4,0.1-0.5,0.5-0.5
			c0.5,0,0.9,0,1.4,0C76.9,3.6,77.6,3.6,78.3,3.6z"/>
		<path class="st0" d="M55.3,5.5c-1.1,0-2.2,0-3.3,0c-0.1,0-0.2,0-0.3,0c-0.2,0-0.3-0.1-0.3-0.4c0-0.4,0-0.7,0-1.1
			c0-0.2,0.1-0.3,0.3-0.4c0.1,0,0.2,0,0.3,0c2.3,0,4.5,0,6.8,0c0.1,0,0.1,0,0.2,0c0.3,0,0.4,0.1,0.4,0.4c0,0.3,0,0.7,0,1
			c0,0.3-0.1,0.4-0.4,0.4c-0.1,0-0.2,0-0.3,0C57.5,5.5,56.4,5.5,55.3,5.5z"/>
		<path class="st0" d="M96.4,5.4c-1.1,0-2.2,0-3.4,0c-0.1,0-0.2,0-0.3,0c-0.2,0-0.3-0.1-0.3-0.3c0-0.4,0-0.8,0-1.2
			c0-0.2,0.1-0.3,0.3-0.3c0.1,0,0.2,0,0.3,0c2.2,0,4.5,0,6.7,0c0.1,0,0.1,0,0.2,0c0.3,0,0.4,0.1,0.4,0.4c0,0.4,0,0.7,0,1.1
			c0,0.2-0.1,0.3-0.3,0.3c-0.3,0-0.6,0-0.9,0C98.3,5.4,97.4,5.4,96.4,5.4C96.4,5.4,96.4,5.4,96.4,5.4z"/>
	</g>
</g>
</svg>
