<?xml version="1.0" encoding="utf-8"?>
<!-- Generator: Adobe Illustrator 24.0.1, SVG Export Plug-In . SVG Version: 6.00 Build 0)  -->
<svg version="1.1" id="Layer_1" xmlns="http://www.w3.org/2000/svg" xmlns:xlink="http://www.w3.org/1999/xlink" x="0px" y="0px"
	 viewBox="0 0 517.2 327.4" style="enable-background:new 0 0 517.2 327.4;" xml:space="preserve">
<style type="text/css">
	.st0{fill:#584ED2;}
</style>
<path class="st0" d="M105.3,194.3c-1.5-37.5,32.3-71.2,70.8-71.2c37.2,0,71.3,31.5,71.5,71.4c0.1,37.2-30.5,71.3-71.7,71.1
	C134.1,265.4,103.8,230.2,105.3,194.3z M175.9,240c25.3,0.1,46.2-20.5,46.2-45.3c0-24.9-20.9-46.2-45.6-46.3
	c-24.8-0.2-46.1,20.9-46.2,45.7C130.3,219.2,150.9,240,175.9,240z"/>
<path class="st0" d="M269.8,194c-1.2-37.6,32.6-71.4,71.7-70.9c37,0.4,70.7,32,70.7,71.7c0,36-29.6,70.6-70.9,70.8
	C299.7,265.8,268.5,231.4,269.8,194z M340.5,240c25.2,0,46.2-20.5,46.2-45.4c0.1-24.7-21.1-46.2-45.7-46.3
	c-24.8-0.2-46,20.9-46.1,45.7C294.9,219.2,315.4,240,340.5,240z"/>
<path d="M29.3,257.7c0-10.6,0.1-21.1,0-31.7c-0.1-13.1-3.5-16.8-16.4-18.4c-8-1-12.8-5.9-12.8-13.2c0-7.5,4.5-12.1,12.8-13.1
	c12.8-1.6,16.4-5.5,16.5-18.6c0.1-19.7,0-39.5,0.1-59.2c0-4.2,0.3-8.5,1.1-12.7C33.7,74.1,44.2,64.3,61.1,62
	c3.2-0.4,6.4-0.8,9.7-0.8c8-0.2,13.7,4.7,14.2,12.2c0.5,8-3.8,13.1-12,14.2c-1,0.1-2,0.3-3,0.4c-9.8,1.2-13.9,5.5-13.9,15.4
	C55.9,123,56,142.5,56,162.1c0,10.7-1.2,21-7.1,30.4c-0.6,0.9-0.5,3,0.2,4c5.6,8.9,6.9,18.7,7,28.9c0.1,19.4,0,38.8,0,58.2
	c0,12.6,3.7,16.5,16.1,17.4c8.3,0.6,13.2,6,12.9,14c-0.3,7.7-5.4,12.7-13.8,12.3c-6.2-0.3-12.6-0.8-18.5-2.6
	c-13.6-4.1-22-16.3-23.1-32.3c-0.1-1.7-0.2-3.4-0.2-5.1C29.3,277.4,29.3,267.5,29.3,257.7C29.3,257.7,29.3,257.7,29.3,257.7z"/>
<path d="M487.9,131.2c0,10.7-0.1,21.4,0,32.2c0.1,12.5,3.7,16.4,16,17.9c8.9,1.1,13.5,5.9,13.2,13.7c-0.3,7.3-5.3,12-13.9,12.8
	c-11.2,1-15.2,5.2-15.3,16.8c-0.1,19.4,0.2,38.8-0.2,58.2c-0.1,6.7-0.7,13.7-2.5,20.1c-4.1,14.8-17.2,24.1-33.3,24.6
	c-2,0.1-4.1,0-6.1,0c-8.3-0.1-13.3-4.4-13.6-11.9c-0.4-8.7,4.1-13.8,12.8-14.5c12.3-0.9,16-5,16.1-17.5c0.1-19.7,0-39.5,0-59.2
	c0-9.8,1.6-19.3,7-27.8c0.6-1,0.7-3,0.1-4c-5.6-8.7-7-18.3-7.1-28.3c-0.1-19.6,0.1-39.1-0.2-58.7c-0.1-4.1-0.9-8.6-3-12
	c-1.5-2.5-5.4-3.8-8.4-5.1c-1.8-0.8-4-0.5-6-0.8c-7.5-1.1-11.4-5.6-11.4-13.1c0-7.3,4.2-12.8,11.5-13.1c22-0.7,41.5,7.2,43.6,35.6
	c0.8,11.3,0.1,22.8,0.1,34.2C487.7,131.2,487.8,131.2,487.9,131.2z"/>
<path d="M218.5,47.7c0.1-16.5,8.2-31.2,19.5-44.4c3.1-3.7,9.1-4.2,13.1-1.8c4.1,2.4,6.1,7.1,4.8,11.8c-1.4,4.9-3.3,9.7-4.5,14.6
	c-3.1,12.8-1.7,25.2,3.4,37.4c4.8,11.7-3.9,23.3-16.1,22c-5.2-0.6-8.7-3.7-11.5-7.7C221,70.5,218.7,60.1,218.5,47.7z"/>
<path d="M260.7,49.8c0.5-18.8,8.5-33.5,19.8-46.7c3-3.5,9.2-3.9,13.2-1.5c4.3,2.6,5.9,7.5,4.4,13c-2,7.5-4.5,15-5.6,22.7
	c-1.5,10.2,1.6,19.8,5.1,29.3c4.1,11.1-4.6,22.2-16.2,20.6c-3.8-0.5-8-3.2-10.5-6.2C263,71.8,261.3,60.5,260.7,49.8z"/>
</svg>
