<?xml version="1.0" encoding="utf-8"?>
<!-- Generator: Adobe Illustrator 24.0.1, SVG Export Plug-In . SVG Version: 6.00 Build 0)  -->
<svg version="1.1" id="Layer_1" xmlns="http://www.w3.org/2000/svg" xmlns:xlink="http://www.w3.org/1999/xlink" x="0px" y="0px"
	 viewBox="0 0 30 30" style="enable-background:new 0 0 30 30;" xml:space="preserve">
<style type="text/css">
	.st0{fill:#584ED2;}
	.st1{fill:#FFFFFF;}
</style>
<path class="st0" d="M1.8,20.4c-0.1-3.3,2.8-6.2,6.1-6.2c3.2,0,6.2,2.7,6.2,6.2c0,3.2-2.6,6.2-6.2,6.2C4.3,26.5,1.6,23.5,1.8,20.4z
	 M7.9,24.3c2.2,0,4-1.8,4-3.9c0-2.2-1.8-4-4-4c-2.1,0-4,1.8-4,4C3.9,22.5,5.7,24.3,7.9,24.3z"/>
<path class="st0" d="M16,20.3c-0.1-3.3,2.8-6.2,6.2-6.2c3.2,0,6.1,2.8,6.1,6.2c0,3.1-2.6,6.1-6.1,6.1C18.6,26.6,15.9,23.6,16,20.3z
	 M22.2,24.3c2.2,0,4-1.8,4-3.9c0-2.1-1.8-4-4-4c-2.2,0-4,1.8-4,4C18.2,22.5,20,24.3,22.2,24.3z"/>
<path class="st1" d="M11.6,7.6c0-1.4,0.7-2.7,1.7-3.9c0.3-0.3,0.8-0.4,1.1-0.2c0.4,0.2,0.5,0.6,0.4,1c-0.1,0.4-0.3,0.8-0.4,1.3
	c-0.3,1.1-0.1,2.2,0.3,3.2c0.4,1-0.3,2-1.4,1.9c-0.4,0-0.8-0.3-1-0.7C11.8,9.6,11.6,8.7,11.6,7.6z"/>
<path class="st1" d="M15.2,7.8c0-1.6,0.7-2.9,1.7-4.1c0.3-0.3,0.8-0.3,1.1-0.1c0.4,0.2,0.5,0.6,0.4,1.1c-0.2,0.7-0.4,1.3-0.5,2
	c-0.1,0.9,0.1,1.7,0.4,2.5c0.4,1-0.4,1.9-1.4,1.8c-0.3,0-0.7-0.3-0.9-0.5C15.4,9.7,15.3,8.8,15.2,7.8z"/>
</svg>
