<?xml version="1.0" encoding="utf-8"?>
<!-- Generator: Adobe Illustrator 24.0.1, SVG Export Plug-In . SVG Version: 6.00 Build 0)  -->
<svg version="1.1" id="Layer_1" xmlns="http://www.w3.org/2000/svg" xmlns:xlink="http://www.w3.org/1999/xlink" x="0px" y="0px"
	 viewBox="0 0 1000 199.6" style="enable-background:new 0 0 1000 199.6;" xml:space="preserve">
<style type="text/css">
	.st0{fill:#584ED2;}
</style>
<g>
	<path class="st0" d="M64.2,118.4C63.3,95.5,83.8,75,107.3,75c22.7,0,43.5,19.2,43.6,43.5c0.1,22.6-18.6,43.4-43.7,43.3
		C81.7,161.8,63.3,140.3,64.2,118.4z M107.2,146.3c15.4,0,28.2-12.5,28.2-27.6c0-15.2-12.7-28.1-27.8-28.2
		c-15.1-0.1-28.1,12.7-28.1,27.8C79.4,133.6,92,146.2,107.2,146.3z"/>
	<path class="st0" d="M164.4,118.2c-0.7-22.9,19.9-43.5,43.7-43.2c22.5,0.2,43.1,19.5,43.1,43.7c0,21.9-18.1,43-43.2,43.2
		C182.6,162,163.7,141,164.4,118.2z M207.5,146.3c15.4,0,28.1-12.5,28.2-27.7c0-15.1-12.8-28.1-27.8-28.2
		c-15.1-0.1-28.1,12.7-28.1,27.8C179.7,133.6,192.2,146.2,207.5,146.3z"/>
	<path d="M17.8,157c0-6.4,0-12.9,0-19.3c-0.1-8-2.1-10.3-10-11.2c-4.9-0.6-7.8-3.6-7.8-8.1c0-4.5,2.7-7.4,7.8-8
		c7.8-1,10-3.3,10-11.3c0.1-12,0-24.1,0-36.1c0-2.6,0.2-5.2,0.7-7.7c2-10.2,8.4-16.2,18.7-17.6c2-0.3,3.9-0.5,5.9-0.5
		c4.9-0.1,8.3,2.9,8.6,7.5c0.3,4.9-2.3,8-7.3,8.7c-0.6,0.1-1.2,0.2-1.9,0.2c-5.9,0.7-8.4,3.3-8.5,9.4c-0.1,11.9,0,23.9,0,35.8
		c0,6.5-0.7,12.8-4.4,18.5c-0.4,0.6-0.3,1.8,0.1,2.4c3.4,5.4,4.2,11.4,4.2,17.6c0.1,11.8,0,23.7,0,35.5c0,7.7,2.3,10,9.8,10.6
		c5.1,0.4,8.1,3.6,7.9,8.5c-0.2,4.7-3.3,7.7-8.4,7.5c-3.8-0.2-7.7-0.5-11.3-1.6c-8.3-2.5-13.4-9.9-14.1-19.7c-0.1-1-0.1-2.1-0.1-3.1
		C17.9,169.1,17.9,163.1,17.8,157C17.9,157,17.8,157,17.8,157z"/>
	<path d="M297.4,79.9c0,6.5-0.1,13.1,0,19.6c0.1,7.6,2.2,10,9.7,10.9c5.4,0.7,8.2,3.6,8.1,8.3c-0.2,4.5-3.2,7.3-8.5,7.8
		c-6.8,0.6-9.3,3.2-9.3,10.2c-0.1,11.8,0.1,23.6-0.1,35.5c-0.1,4.1-0.4,8.3-1.5,12.3c-2.5,9-10.5,14.7-20.3,15c-1.2,0-2.5,0-3.7,0
		c-5,0-8.1-2.7-8.3-7.3c-0.2-5.3,2.5-8.4,7.8-8.8c7.5-0.6,9.8-3,9.8-10.6c0-12,0-24.1,0-36.1c0-6,1-11.7,4.2-17
		c0.4-0.6,0.4-1.8,0.1-2.4c-3.4-5.3-4.3-11.2-4.3-17.3c-0.1-11.9,0.1-23.9-0.1-35.8c0-2.5-0.6-5.3-1.8-7.3c-0.9-1.5-3.3-2.3-5.1-3.1
		c-1.1-0.5-2.5-0.3-3.7-0.5c-4.6-0.7-7-3.4-7-8c0-4.5,2.6-7.8,7-8c13.4-0.4,25.3,4.4,26.6,21.7c0.5,6.9,0.1,13.9,0.1,20.8
		C297.2,79.9,297.3,79.9,297.4,79.9z"/>
	<path d="M133.2,29.1c0.1-10.1,5-19,11.9-27.1c1.9-2.2,5.5-2.6,8-1.1c2.5,1.5,3.7,4.3,3,7.2c-0.8,3-2,5.9-2.7,8.9
		c-1.9,7.8-1,15.4,2.1,22.8c2.9,7.1-2.4,14.2-9.8,13.4c-3.2-0.3-5.3-2.2-7-4.7C134.7,42.9,133.3,36.6,133.2,29.1z"/>
	<path d="M158.9,30.3c0.3-11.4,5.2-20.4,12-28.5c1.8-2.2,5.6-2.4,8-0.9c2.6,1.6,3.6,4.6,2.7,7.9c-1.2,4.6-2.7,9.1-3.4,13.8
		c-0.9,6.2,1,12,3.1,17.9c2.5,6.8-2.8,13.6-9.9,12.5c-2.3-0.3-4.9-2-6.4-3.8C160.3,43.8,159.2,36.9,158.9,30.3z"/>
</g>
<g>
	<g>
		<path d="M869,152c-1.7,5.9-3.4,11.9-5.1,17.8c-0.3,1.2-0.6,2.5-1.2,3.6c-1.2,2.4-4.1,2.5-5.5,0.2c-0.4-0.6-0.6-1.3-0.8-1.9
			c-2.8-8.4-5.6-16.7-8.3-25.1c-0.3-0.8-0.5-1.5-0.6-2.3c-0.1-1.2,0.2-2.4,1.6-2.7c1.3-0.3,2.6-0.3,3.4,0.9c0.5,0.8,0.9,1.8,1.2,2.8
			c1.8,5.4,3.5,10.9,5.3,16.3c0.3,0.9,0.6,1.7,1.2,3.1c1.6-5.3,3-10.1,4.4-14.9c0.6-1.9,1-3.8,1.7-5.6c0.8-2.2,1.6-2.9,3.3-2.8
			c1.7,0,2.6,0.8,3.2,3c1.7,6.4,3.3,12.9,4.9,19.3c0.1,0.3,0.2,0.5,0.4,1.2c0.6-1.5,1.1-2.6,1.4-3.8c1.7-5.2,3.3-10.5,5-15.7
			c0.3-1,0.7-2,1.2-2.8c0.8-1.2,2.5-1.6,3.7-1c1.2,0.6,1.4,1.7,1.2,2.9c-0.1,0.9-0.4,1.8-0.7,2.6c-2.7,8-5.4,16.1-8.1,24.1
			c-0.2,0.7-0.4,1.3-0.7,1.9c-0.6,1.3-1.5,2.1-2.9,2c-1.4,0-2.4-0.8-2.8-2.1c-0.2-0.6-0.4-1.3-0.6-2c-1.6-5.7-3.1-11.5-4.7-17.2
			c-0.2-0.6-0.4-1.2-0.6-1.9C869.4,152,869.2,152,869,152z"/>
		<path d="M923.4,170.3c-0.7,0.5-1.1,0.9-1.5,1.2c-7,6.6-21.1,5.3-25.2-7.2c-2.5-7.6-0.1-15.8,5.8-20c5.5-3.8,11.4-4.6,17.5-1.7
			c6.2,2.8,9.4,8,9.8,14.6c0.3,4.8,0.1,9.6,0.1,14.4c0,0.7-0.2,1.4-0.5,2c-0.6,1.3-1.7,1.8-3.1,1.6c-1.3-0.1-2.2-0.8-2.5-2
			C923.6,172.4,923.5,171.5,923.4,170.3z M912.6,169.8c5.7,0.4,11.2-4.6,11.2-11.4c0-6.6-4.6-11.7-10.8-11.9
			c-6.2-0.1-11.1,5-11.2,11.5C901.7,164.8,906.3,169.8,912.6,169.8z"/>
		<path d="M973.7,160.5c0.8,7.2,9.2,11.9,17,8.4c0.9-0.4,1.8-1.1,2.7-1.5c1.4-0.6,2.9-0.2,3.6,1c0.8,1.2,0.6,2.7-0.9,3.5
			c-2.1,1.2-4.2,2.4-6.5,2.9c-10.3,2.3-19.6-3-21.6-12.9c-1.7-9,2.3-16.6,9.6-19.7c4-1.7,8.2-1.9,12.4-0.4c3.5,1.2,6.1,3.6,7.8,6.8
			c1.3,2.5,1.8,5.2,2,7.9c0.2,2.3-0.7,3.5-3,3.8c-0.9,0.1-1.8,0.1-2.7,0.1c-5.6,0-11.2,0-16.8,0
			C976.3,160.5,975.1,160.5,973.7,160.5z M993.9,155.4c-0.2-5.9-5.1-9.5-10.3-9.1c-5.4,0.4-9.4,4-9.4,8.9c0.5,0,1.1,0.1,1.6,0.1
			C981.8,155.4,987.7,155.4,993.9,155.4z"/>
		<path d="M777.9,175.4c-7.8,0.3-17-5-16.9-17.2c0.1-11.2,7.5-17.3,17.4-17.2c11.7,0.2,16.9,9.2,16.8,17.5
			C795.1,168.2,787.9,175.7,777.9,175.4z M788.9,158.5c0-0.7,0.1-1.4,0-2.1c-0.6-4.2-2.5-7.4-6.5-9c-4.2-1.7-8.1-1.1-11.6,1.8
			c-5.5,4.7-5,14.6,0.9,18.7c3.6,2.5,7.6,2.6,11.4,0.7C787.3,166.6,788.9,162.9,788.9,158.5z"/>
		<path d="M740.9,175.4c-3.6,0.1-7.1-0.7-10.3-2.4c-1-0.5-2-1.2-2.8-2c-1.2-1.2-1.4-2.8-0.4-4c1.1-1.4,2.9-1.8,4.3-0.9
			c0.5,0.3,0.9,0.7,1.3,1.1c3.4,2.8,7.3,3,11.4,2.4c0.8-0.1,1.5-0.5,2.2-0.9c2.4-1.5,2.5-4.4,0.2-6c-1.2-0.8-2.6-1.3-4.1-1.8
			c-2-0.6-4.1-0.8-6-1.5c-2-0.8-4.1-1.6-5.7-2.9c-4.3-3.5-3.8-9.8,0.8-12.9c5.3-3.6,14.4-3.3,19.4,0.7c0.7,0.6,1.3,1.2,1.9,1.9
			c0.7,0.9,0.9,1.9,0.3,2.9c-0.7,1.1-1.8,1.6-3,1.2c-1.1-0.3-2-1-3-1.6c-3.2-2.3-6.8-2.6-10.5-1.5c-1.5,0.4-2.7,1.2-2.8,3
			c-0.1,1.7,0.7,2.9,2.3,3.4c1.9,0.7,3.9,1.1,5.9,1.7c2.4,0.8,4.9,1.3,7.1,2.4c7.2,3.4,5.8,12.3,0.7,15.5
			C747.5,175,744.3,175.5,740.9,175.4z"/>
		<path d="M811.8,142.4c1.3,0,2.4,0,3.6,0c0.9,0,1.8,0,2.7,0.2c1.9,0.3,2.6,1.2,2.5,2.7c0,1.5-0.9,2.4-2.7,2.5c-1.9,0.1-3.9,0-6.1,0
			c-0.1,1-0.3,1.9-0.3,2.7c0,6.4,0,12.9,0,19.3c0,0.9,0.1,1.9-0.1,2.7c-0.3,1.8-1.7,2.9-3.4,2.7c-1.5-0.1-2.6-1.2-2.8-2.9
			c-0.1-0.8,0-1.6,0-2.4c0-6.1,0-12.2,0-18.3c0-1.1,0-2.3,0-3.6c-1.1-0.1-2-0.2-2.9-0.3c-1.7-0.2-2.7-1.1-2.8-2.5
			c0-1.3,0.9-2.4,2.6-2.7c0.9-0.2,1.8-0.2,2.9-0.4c0.1-1.3,0.2-2.5,0.4-3.8c0.9-6.9,6.7-11.9,13.5-11.6c2.1,0.1,3,0.8,3.2,2.3
			c0.2,1.7-0.8,2.9-2.8,3.3c-1,0.2-2.1,0.2-3,0.5C812.9,134.2,811.4,137.1,811.8,142.4z"/>
		<path d="M835,147.7c0,5.6-0.1,10.8,0,15.9c0.1,3.5,2,5.1,5.7,5.4c1,0.1,2.2,0.3,2.8,0.9c0.6,0.6,0.9,1.9,0.8,2.8
			c-0.2,1.5-1.5,2.2-3,2.5c-4,0.6-8.3-1.4-10.6-5c-1.4-2.2-2-4.6-2-7.2c0-4.9,0-9.9,0-15.1c-1.2-0.1-2.3-0.2-3.4-0.3
			c-1.3-0.1-2.1-0.8-2.2-2.2c-0.2-1.4,0.4-2.4,1.9-2.8c1.1-0.3,2.2-0.4,3.8-0.6c0-2.4,0-4.9,0-7.4c0-3,1.1-4.3,3.2-4.2
			c2,0.1,2.9,1.3,3,4.2c0,2.5,0,5,0,7.8c1.4,0,2.4,0,3.4,0c0.8,0,1.6,0,2.4,0.2c1.6,0.4,2.5,1.5,2.4,2.8c-0.1,1.2-1.1,2.2-2.6,2.3
			C838.9,147.8,837.2,147.7,835,147.7z"/>
		<path d="M946.1,144.9c3.3-3,6.9-4.3,10.9-4c1.5,0.1,3.1,0.7,4.6,1.3c1.1,0.5,1.7,1.6,1.4,2.9c-0.3,1.2-1.5,1.9-2.9,1.9
			c-0.7,0-1.3-0.2-2-0.4c-2.3-0.4-4.6-0.2-6.8,0.5c-3.8,1.2-5.4,3.4-5.5,7.3c-0.1,5.3,0,10.6,0,15.8c0,0.9,0,1.9-0.2,2.7
			c-0.4,1.7-1.6,2.5-3.3,2.3c-1.6-0.1-2.4-1-2.7-2.6c-0.1-0.7-0.1-1.4-0.1-2.1c0-8.3,0-16.5,0-24.8c0-0.3,0-0.7,0-1
			c0.1-2.3,0.6-3.1,2.2-3.4c2-0.4,2.9,0.2,3.9,2.3C945.7,144,945.8,144.3,946.1,144.9z"/>
	</g>
	<g>
		<path class="st0" d="M527.3,68.9c0,12.6,0,25.3,0,37.9c0,1.7-0.2,3.4-0.5,5c-0.7,4.1-3.3,6.6-7.3,7c-4.5,0.5-9.1,0.7-13.7-0.3
			c-2.7-0.5-4.6-1.8-5.9-4.1c-2.9-4.8-5.7-9.6-8.5-14.5c-7.6-13.2-15.1-26.5-22.6-39.7c-2.5-4.4-5-8.9-7.5-13.3
			c-0.3-0.6-0.6-1.2-1.1-1.6c-0.2-0.2-1.2,0.1-1.2,0.3c-0.2,1.2-0.2,2.3-0.2,3.5c0,21.1,0,42.2,0,63.4c0,1.2,0.1,2.4,0,3.5
			c-0.2,1.9-1,2.9-2.9,3c-3.3,0.1-6.6,0.1-9.8,0c-2-0.1-3-1.2-3.3-3.2c-0.1-0.9-0.1-1.8-0.1-2.7c0-24.6,0-49.3,0-73.9
			c0-2.7,0.2-5.5,0.9-8.1c0.8-3.5,2.8-5.9,6.8-6.5c5.1-0.8,10.2-0.5,15.2,0.2c2.3,0.3,3.8,1.8,4.9,3.6c1.9,3,3.6,6,5.4,9.1
			c5.1,9.1,10.2,18.2,15.3,27.2c6,10.5,11.9,21.1,17.9,31.6c0.3,0.5,0.5,0.9,0.9,1.3c0.2,0.2,0.7,0.4,1,0.4c0.3-0.1,0.7-0.5,0.7-0.8
			c0.1-1.2,0.1-2.3,0.1-3.5c0-21.3,0-42.5,0-63.8c0-5.5,0.4-5.8,5.7-5.8c2,0,3.9-0.1,5.9,0c3.1,0.1,3.9,1,4,4.1
			c0.1,6.8,0,13.6,0,20.3C527.4,55.4,527.4,62.1,527.3,68.9C527.3,68.9,527.3,68.9,527.3,68.9z"/>
		<path class="st0" d="M845.1,24.2c7,0,13.9-0.1,20.9,0c3.8,0.1,7.6,0.2,11.3,0.8c5.2,0.7,9.2,3.6,11.9,8.1c1.8,3.1,2.8,6.4,3.4,9.9
			c1.4,8.4,1.1,16.8-2,24.9c-2.2,5.8-6.3,9.4-12.4,10.7c-0.1,0-0.3,0-0.4,0c-2.3,0.6-2.6,1.2-1.5,3.2c1.2,2.2,2.5,4.3,3.7,6.4
			c4.8,8.2,9.7,16.4,14.5,24.6c0.2,0.3,0.4,0.7,0.6,1c2,3.1,0.2,5.9-3.4,5.4c-3.1-0.4-6.3-0.2-9.4,0c-2.3,0.1-3.8-0.8-4.8-2.7
			c-2-3.4-3.9-6.8-5.8-10.2c-4.7-8.3-9.4-16.5-14-24.8c-0.9-1.6-1.8-2.2-3.7-2.2c-6.4,0.1-12.9,0-19.3,0c-3.3,0-3.3,0.1-3.3,3.2
			c0,8.9,0,17.7,0,26.6c0,1.3,0,2.6,0,3.9c0,5.4-0.7,6-6.1,6c-2.2,0-4.5,0.1-6.7,0c-2.5-0.1-3.2-0.9-3.4-3.3c-0.1-0.8,0-1.6,0-2.3
			c0-15,0-30,0-45c0-5.2,0.1-5.3,5.3-5.3c15,0,29.9,0,44.9,0c1,0,2.1,0,3.1,0c4.9-0.1,7.7-2.4,8.2-7.1c0.3-2.8,0.4-5.8,0-8.6
			c-0.7-4.4-2.9-6.7-7.6-6.7c-15.2,0.1-30.4,0-45.7,0c-1.2,0-2.4,0-3.5,0c-3.9-0.1-4.6-0.8-4.7-4.5c0-2.9-0.1-5.7,0-8.6
			c0.1-2.4,0.9-3.2,3.3-3.5c0.9-0.1,1.8,0,2.8,0C829.1,24.1,837.1,24.2,845.1,24.2z"/>
		<path class="st0" d="M951.8,24.2c7,0,13.9-0.1,20.9,0c3.7,0.1,7.4,0.2,10.9,0.7c5.9,0.9,10.4,4,13,9.6c1.8,3.8,2.7,7.9,3.1,12
			c0.5,6.2,0.2,12.5-1.5,18.6c-2.2,8-8,14.1-18.3,14.2c-12.7,0.1-25.5,0.1-38.2,0.1c-4.1,0-4.1,0-4.1,4c0,9.8,0,19.6,0,29.4
			c0,0.9,0,1.8,0,2.7c-0.1,2.4-0.9,3.5-3.2,3.6c-3.3,0.2-6.6,0.2-9.8,0c-2.4-0.1-3.2-1.2-3.2-4c0-7.4,0-14.9,0-22.3
			c0-8.3,0-16.7,0-25c0-4,0.6-4.5,4.6-4.5c15.5,0,31,0,46.5,0c1.3,0,2.6,0,3.9,0c3.1-0.2,5.2-1.8,6.2-4.6c1.4-4.3,1.5-8.7,0-13
			c-1.1-3.2-3.1-4.7-6.9-4.7c-14.8,0.1-29.7,0-44.5,0c-2,0-4,0.1-5.9-0.1c-3.1-0.3-3.8-1.2-3.9-4.2c-0.1-2.7-0.1-5.5,0-8.2
			c0.1-3.1,1.1-4.1,4.4-4.2C934.5,24.1,943.2,24.2,951.8,24.2z"/>
		<path class="st0" d="M755.6,63.2c9.4,0,18.9,0,28.3,0c4.1,0,4.7,0.7,4.8,4.8c0,2.3,0.1,4.7,0,7c-0.1,3.5-0.9,4.3-4.5,4.3
			c-15,0-29.9,0-44.9,0c-7.3,0-6.3-1.1-6.4,6.5c0,2.2,0.3,4.4,0.8,6.5c0.8,3.3,3,5.5,6.4,6.1c2.1,0.4,4.1,0.7,6.2,0.7
			c12.3,0.1,24.7,0,37,0c1,0,2.1,0,3.1,0c1.4,0,2.3,0.8,2.3,2.2c0,5,0,9.9,0,14.9c0,1.6-1,2.3-2.5,2.3c-0.5,0-1,0-1.6,0
			c-14.3,0-28.6,0-42.9,0c-3.2,0-6.2-0.4-9.2-1.4c-8.3-2.8-12.5-9-14.4-17.1c-1.2-5.5-1.8-11-1.6-16.6c0.1-3.5,0-7,0.1-10.6
			c0.1-5.5,4.1-9.5,9.7-9.6C736.1,63.2,745.9,63.2,755.6,63.2C755.6,63.2,755.6,63.2,755.6,63.2z"/>
		<path class="st0" d="M591.8,63.2c9.2,0,18.4,0,27.5,0c0.9,0,1.8-0.1,2.8,0c1.7,0.2,2.7,1,2.8,2.7c0.1,3.5,0.1,7,0,10.6
			c-0.1,1.9-1,2.7-3.1,2.8c-0.9,0.1-1.8,0-2.8,0c-14.6,0-29.1,0-43.7,0c-0.7,0-1.3,0-2,0c-3.6,0-3.6,0-3.7,3.7
			c-0.2,10.5-0.4,21.1-0.6,31.6c-0.1,4-0.6,4.5-4.6,4.6c-2.4,0-4.7,0-7.1,0c-3.6-0.1-4.6-1-4.6-4.7c0-7.2-0.1-14.3,0-21.5
			c0.1-6.8,0.4-13.5,0.5-20.3c0.1-5.6,3.6-9.2,9.3-9.4c2.1-0.1,4.2,0,6.3,0C576.6,63.2,584.2,63.2,591.8,63.2
			C591.8,63.2,591.8,63.2,591.8,63.2z"/>
		<path class="st0" d="M388,79.3c-7.5,0-15,0-22.4,0c-4.7,0-4.6-0.4-4.6,4.4c0,9.8-0.1,19.6,0,29.3c0.1,5.5-1.2,6.4-6.4,6.1
			c-2.2-0.1-4.5,0.1-6.7,0c-2.2-0.1-3-1-3.2-3.1c-0.1-0.9,0-1.8,0-2.7c0-13.2,0-26.3,0.1-39.5c0-6.6,3.7-10.5,10.3-10.5
			c19-0.1,38-0.1,57.1,0c3.6,0,4,0.5,4.1,4.1c0,2.9,0.1,5.7,0,8.6c-0.1,3-0.5,3.4-3.5,3.4c-5.5,0.1-11,0-16.5,0
			C393.5,79.3,390.8,79.3,388,79.3z"/>
		<path class="st0" d="M588.9,24.2c9.8,0,19.7,0,29.5,0c0.7,0,1.3,0,2,0c4.1,0.1,5.1,1.1,5.2,5c0.1,2.5,0.1,5,0,7.4
			c-0.1,2.6-1.2,3.8-3.7,4.2c-0.9,0.1-1.8,0.1-2.8,0.1c-19.9,0-39.9,0-59.8,0c-6,0-6.5-0.5-6.5-6.4c0-2,0-3.9,0-5.9
			c0.1-3.3,1.1-4.3,4.6-4.4c4.2-0.1,8.4,0,12.6,0C576.3,24.2,582.6,24.2,588.9,24.2z"/>
		<path class="st0" d="M380.7,40.8c-10,0-19.9,0-29.9,0c-1,0-2.1,0.1-3.1-0.1c-2.1-0.3-2.9-1.2-3-3.4c-0.1-3.3-0.1-6.5,0-9.8
			c0.1-2.1,0.9-3.1,3-3.4c0.8-0.1,1.6-0.1,2.4-0.1c20.4,0,40.9,0,61.3,0c0.7,0,1.3,0,2,0c2.6,0.3,3.5,1.1,3.6,3.7
			c0.1,3.1,0.1,6.3,0,9.4c-0.1,2.4-0.9,3.3-3.2,3.6c-0.9,0.1-1.8,0-2.7,0C400.9,40.8,390.8,40.8,380.7,40.8z"/>
		<path class="st0" d="M752.7,40.2c-10.1,0-20.2,0-30.3,0c-0.9,0-1.8,0-2.8,0c-2.2-0.1-2.9-0.7-2.9-2.8c-0.1-3.5-0.1-7,0-10.6
			c0.1-1.7,1-2.6,2.7-2.8c0.9-0.1,1.8,0,2.8,0c20.3,0,40.7,0,61,0c0.7,0,1.3,0,2,0c2.8,0.1,3.6,0.8,3.7,3.4c0.1,3.4,0.1,6.8,0,10.2
			c-0.1,2-0.6,2.5-2.7,2.6c-2.8,0.1-5.5,0-8.3,0C769.5,40.3,761.1,40.3,752.7,40.2C752.7,40.3,752.7,40.3,752.7,40.2z"/>
	</g>
</g>
</svg>
